<svg width="300" height="300" viewBox="0 0 300 300" fill="none" xmlns="http://www.w3.org/2000/svg">
<g filter="url(#filter0_d_94_3)">
<circle cx="141" cy="143" r="112" fill="url(#paint0_radial_94_3)"/>
</g>
<path fill-rule="evenodd" clip-rule="evenodd" d="M42.8291 196.955C39.6844 186.013 37.9999 174.453 37.9999 162.5C37.9999 93.7405 93.7404 38 162.5 38C170.26 38 177.854 38.7099 185.221 40.0684C171.655 34.2325 156.705 31 141 31C79.144 31 28.9999 81.1441 28.9999 143C28.9999 162.562 34.0148 180.952 42.8291 196.955Z" fill="url(#paint1_radial_94_3)"/>
<path fill-rule="evenodd" clip-rule="evenodd" d="M239.392 89C242.537 99.942 244.221 111.502 244.221 123.455C244.221 192.215 188.481 247.955 119.721 247.955C111.961 247.955 104.367 247.245 96.9999 245.887C110.566 251.723 125.516 254.955 141.221 254.955C203.077 254.955 253.221 204.811 253.221 142.955C253.221 123.394 248.206 105.003 239.392 89Z" fill="url(#paint2_radial_94_3)" fill-opacity="0.5"/>
<g filter="url(#filter1_d_94_3)">
<circle cx="253.5" cy="237.5" r="17.5" fill="url(#paint3_radial_94_3)"/>
</g>
<path fill-rule="evenodd" clip-rule="evenodd" d="M29.0852 147.413C31.44 84.2341 82.2339 33.4401 145.413 31.0854C143.949 31.0287 142.478 31 141 31C79.144 31 28.9999 81.1441 28.9999 143C28.9999 144.478 29.0285 145.949 29.0852 147.413Z" fill="url(#paint4_linear_94_3)"/>
<g filter="url(#filter2_df_94_3)">
<path d="M143 273L32.9997 26L87.9997 26L143 143L198 26L253 26L143 273Z" fill="url(#paint5_linear_94_3)"/>
</g>
<g filter="url(#filter3_dd_94_3)">
<path d="M143 273L32.9997 26L87.9997 26L143 143L198 26L253 26L143 273Z" fill="url(#paint6_radial_94_3)"/>
</g>
<path fill-rule="evenodd" clip-rule="evenodd" d="M37.8988 26L143 262L248.101 26L253 26L143 273L33 26L37.8988 26Z" fill="url(#paint7_linear_94_3)"/>
<path fill-rule="evenodd" clip-rule="evenodd" d="M230.485 26C226.349 99.711 166.883 158.293 93.3752 161.57L33 26L88 26L143 143L198 26L230.485 26Z" fill="url(#paint8_radial_94_3)"/>
<defs>
<filter id="filter0_d_94_3" x="24.9999" y="31" width="232" height="232" filterUnits="userSpaceOnUse" color-interpolation-filters="sRGB">
<feFlood flood-opacity="0" result="BackgroundImageFix"/>
<feColorMatrix in="SourceAlpha" type="matrix" values="0 0 0 0 0 0 0 0 0 0 0 0 0 0 0 0 0 0 127 0" result="hardAlpha"/>
<feOffset dy="4"/>
<feGaussianBlur stdDeviation="2"/>
<feComposite in2="hardAlpha" operator="out"/>
<feColorMatrix type="matrix" values="0 0 0 0 0 0 0 0 0 0 0 0 0 0 0 0 0 0 0.25 0"/>
<feBlend mode="normal" in2="BackgroundImageFix" result="effect1_dropShadow_94_3"/>
<feBlend mode="normal" in="SourceGraphic" in2="effect1_dropShadow_94_3" result="shape"/>
</filter>
<filter id="filter1_d_94_3" x="232" y="220" width="43" height="43" filterUnits="userSpaceOnUse" color-interpolation-filters="sRGB">
<feFlood flood-opacity="0" result="BackgroundImageFix"/>
<feColorMatrix in="SourceAlpha" type="matrix" values="0 0 0 0 0 0 0 0 0 0 0 0 0 0 0 0 0 0 127 0" result="hardAlpha"/>
<feOffset dy="4"/>
<feGaussianBlur stdDeviation="2"/>
<feComposite in2="hardAlpha" operator="out"/>
<feColorMatrix type="matrix" values="0 0 0 0 0 0 0 0 0 0 0 0 0 0 0 0 0 0 0.25 0"/>
<feBlend mode="normal" in2="BackgroundImageFix" result="effect1_dropShadow_94_3"/>
<feBlend mode="normal" in="SourceGraphic" in2="effect1_dropShadow_94_3" result="shape"/>
</filter>
<filter id="filter2_df_94_3" x="28.9998" y="22" width="228" height="259" filterUnits="userSpaceOnUse" color-interpolation-filters="sRGB">
<feFlood flood-opacity="0" result="BackgroundImageFix"/>
<feColorMatrix in="SourceAlpha" type="matrix" values="0 0 0 0 0 0 0 0 0 0 0 0 0 0 0 0 0 0 127 0" result="hardAlpha"/>
<feOffset dy="4"/>
<feGaussianBlur stdDeviation="2"/>
<feComposite in2="hardAlpha" operator="out"/>
<feColorMatrix type="matrix" values="0 0 0 0 0 0 0 0 0 0 0 0 0 0 0 0 0 0 0.25 0"/>
<feBlend mode="normal" in2="BackgroundImageFix" result="effect1_dropShadow_94_3"/>
<feBlend mode="normal" in="SourceGraphic" in2="effect1_dropShadow_94_3" result="shape"/>
<feGaussianBlur stdDeviation="2" result="effect2_foregroundBlur_94_3"/>
</filter>
<filter id="filter3_dd_94_3" x="14.9998" y="16" width="256" height="283" filterUnits="userSpaceOnUse" color-interpolation-filters="sRGB">
<feFlood flood-opacity="0" result="BackgroundImageFix"/>
<feColorMatrix in="SourceAlpha" type="matrix" values="0 0 0 0 0 0 0 0 0 0 0 0 0 0 0 0 0 0 127 0" result="hardAlpha"/>
<feOffset dy="4"/>
<feGaussianBlur stdDeviation="2"/>
<feColorMatrix type="matrix" values="0 0 0 0 0 0 0 0 0 0 0 0 0 0 0 0 0 0 0.3 0"/>
<feBlend mode="normal" in2="BackgroundImageFix" result="effect1_dropShadow_94_3"/>
<feColorMatrix in="SourceAlpha" type="matrix" values="0 0 0 0 0 0 0 0 0 0 0 0 0 0 0 0 0 0 127 0" result="hardAlpha"/>
<feMorphology radius="6" operator="dilate" in="SourceAlpha" result="effect2_dropShadow_94_3"/>
<feOffset dy="8"/>
<feGaussianBlur stdDeviation="6"/>
<feColorMatrix type="matrix" values="0 0 0 0 0 0 0 0 0 0 0 0 0 0 0 0 0 0 0.15 0"/>
<feBlend mode="normal" in2="effect1_dropShadow_94_3" result="effect2_dropShadow_94_3"/>
<feBlend mode="normal" in="SourceGraphic" in2="effect2_dropShadow_94_3" result="shape"/>
</filter>
<radialGradient id="paint0_radial_94_3" cx="0" cy="0" r="1" gradientUnits="userSpaceOnUse" gradientTransform="translate(74.9999 49) rotate(50.4155) scale(232.261)">
<stop stop-color="#825E9E"/>
<stop offset="1" stop-color="#391357"/>
</radialGradient>
<radialGradient id="paint1_radial_94_3" cx="0" cy="0" r="1" gradientUnits="userSpaceOnUse" gradientTransform="translate(164.5 39.5) rotate(151.21) scale(178.573 178.573)">
<stop stop-color="white" stop-opacity="0.8"/>
<stop offset="1" stop-color="white" stop-opacity="0"/>
</radialGradient>
<radialGradient id="paint2_radial_94_3" cx="0" cy="0" r="1" gradientUnits="userSpaceOnUse" gradientTransform="translate(117.721 246.455) rotate(-28.7897) scale(178.573 178.573)">
<stop stop-color="white" stop-opacity="0.8"/>
<stop offset="1" stop-color="white" stop-opacity="0"/>
</radialGradient>
<radialGradient id="paint3_radial_94_3" cx="0" cy="0" r="1" gradientUnits="userSpaceOnUse" gradientTransform="translate(243.187 222.813) rotate(50.4155) scale(36.2907)">
<stop stop-color="#825E9E"/>
<stop offset="1" stop-color="#2D054D"/>
</radialGradient>
<linearGradient id="paint4_linear_94_3" x1="150" y1="24" x2="8.99988" y2="132" gradientUnits="userSpaceOnUse">
<stop stop-color="white" stop-opacity="0.8"/>
<stop offset="1" stop-color="white" stop-opacity="0"/>
</linearGradient>
<linearGradient id="paint5_linear_94_3" x1="81.9997" y1="26" x2="165" y2="273" gradientUnits="userSpaceOnUse">
<stop stop-color="#FFD540"/>
<stop offset="0.45" stop-color="#FFD540"/>
<stop offset="1" stop-color="#998026"/>
</linearGradient>
<radialGradient id="paint6_radial_94_3" cx="0" cy="0" r="1" gradientUnits="userSpaceOnUse" gradientTransform="translate(97.4997 26) rotate(39.6467) scale(253.898 226.144)">
<stop stop-color="#F9DD7C"/>
<stop offset="0.45" stop-color="#FFD540"/>
<stop offset="1" stop-color="#998026"/>
</radialGradient>
<linearGradient id="paint7_linear_94_3" x1="143" y1="58.5" x2="143" y2="282" gradientUnits="userSpaceOnUse">
<stop stop-color="white" stop-opacity="0"/>
<stop offset="1" stop-color="#574812"/>
</linearGradient>
<radialGradient id="paint8_radial_94_3" cx="0" cy="0" r="1" gradientUnits="userSpaceOnUse" gradientTransform="translate(70.5 -36) rotate(70.71) scale(158.922 231.502)">
<stop stop-color="white" stop-opacity="0.8"/>
<stop offset="1" stop-color="white" stop-opacity="0"/>
</radialGradient>
</defs>
</svg>
